<?xml version="1.0" encoding="utf-8"?>
<!-- Generator: Adobe Illustrator 21.1.0, SVG Export Plug-In . SVG Version: 6.00 Build 0)  -->
<svg version="1.1" id="Layer_1" xmlns="http://www.w3.org/2000/svg" xmlns:xlink="http://www.w3.org/1999/xlink" x="0px" y="0px"
	 viewBox="0 0 621 142.6" style="enable-background:new 0 0 621 142.6;" xml:space="preserve">
<style type="text/css">
	.Arched_x0020_Green{fill:url(#SVGID_1_);stroke:#FFFFFF;stroke-width:0.25;stroke-miterlimit:1;}
</style>
<linearGradient id="SVGID_1_" gradientUnits="userSpaceOnUse" x1="-520.499" y1="123.3027" x2="-519.7919" y2="122.5956">
	<stop  offset="0" style="stop-color:#2AAA4F"/>
	<stop  offset="0.9831" style="stop-color:#1A351C"/>
</linearGradient>
<g>
	<path d="M555.7,23.7c10.1,0,16.9,0.3,20.3,1c4.6,0.8,8.3,2.9,11.3,6.2c3,3.3,4.5,7.5,4.5,12.6c0,4.2-1.1,7.8-3.2,10.9
		c-2.1,3.1-5.1,5.4-8.8,6.9c-3.7,1.5-11.2,2.2-22.3,2.2h-15.4V23.7H555.7z M542.1,140.2V87.3h18.4c12.8,0,22.5-0.7,29.3-2
		c5-1.1,9.8-3.3,14.6-6.6c4.8-3.3,8.8-8,11.9-13.8c3.1-5.9,4.7-13.1,4.7-21.7c0-11.2-2.7-20.3-8.1-27.3c-5.4-7-12.1-11.6-20.1-13.7
		C587.5,0.7,576.3,0,559.1,0h-45.3v140.2H542.1z M391.5,74.8c0,15.7,0.9,27.5,2.8,35.6c1.3,5.4,3.9,10.6,7.9,15.5
		c4,4.9,9.5,9,16.4,12.1c6.9,3.1,17,4.6,30.4,4.6c11.1,0,20.1-1.4,26.9-4.3c6.9-2.8,12.4-6.6,16.5-11.4c4.1-4.8,6.9-10.6,8.5-17.6
		c1.5-7,2.3-18.8,2.3-35.7V0h-28.3v77.6c0,11.1-0.4,19-1.2,23.8c-0.8,4.8-3.3,8.8-7.3,12.1c-4.1,3.3-10.1,4.9-18.1,4.9
		c-7.9,0-14.1-1.7-18.6-5.2c-4.5-3.5-7.4-8.1-8.6-13.8c-0.7-3.6-1-11.4-1-23.4V0h-28.3V74.8z M384.1,71H275.4v20h108.7V71z
		 M182.5,140.2v-92l56.7,92h28.3V0h-26.2v94L183.7,0h-27.4v140.2H182.5z M144.2,0h-28.3v140.2h28.3V0z M41.9,23.7
		c10.1,0,16.9,0.3,20.3,1c4.6,0.8,8.3,2.9,11.3,6.2c3,3.3,4.5,7.5,4.5,12.6c0,4.2-1.1,7.8-3.2,10.9c-2.1,3.1-5.1,5.4-8.8,6.9
		c-3.7,1.5-11.2,2.2-22.3,2.2H28.3V23.7H41.9z M28.3,140.2V87.3h18.4c12.8,0,22.5-0.7,29.3-2c5-1.1,9.8-3.3,14.6-6.6
		c4.8-3.3,8.8-8,11.9-13.8c3.1-5.9,4.7-13.1,4.7-21.7c0-11.2-2.7-20.3-8.1-27.3C93.7,8.8,87,4.2,78.9,2.1C73.7,0.7,62.5,0,45.3,0H0
		v140.2H28.3z"/>
</g>
</svg>
