<?xml version="1.0" encoding="UTF-8" standalone="no"?>
<svg width="343px" height="85px" viewBox="0 0 343 85" version="1.1" xmlns="http://www.w3.org/2000/svg" xmlns:xlink="http://www.w3.org/1999/xlink" xmlns:sketch="http://www.bohemiancoding.com/sketch/ns">
    <!-- Generator: Sketch 3.3.3 (12072) - http://www.bohemiancoding.com/sketch -->
    <title>lapka-x-airbnb</title>
    <desc>Created with Sketch.</desc>
    <defs></defs>
    <g id="Page-1" stroke="none" stroke-width="1" fill="none" fill-rule="evenodd" sketch:type="MSPage">
        <g id="lapka-x-airbnb" sketch:type="MSLayerGroup" fill="#000000">
            <g id="XMLID_7_" transform="translate(264.000000, 0.000000)" sketch:type="MSShapeGroup">
                <path d="M73.2,68.5 C72.6,72.9 69.6,76.6 65.6,78.3 C63.6,79.1 61.4,79.4 59.2,79.1 C57.1,78.9 55,78.1 52.8,76.9 C49.8,75.2 46.7,72.6 43.3,68.8 C48.8,62 52.2,55.8 53.5,50.2 C54.1,47.7 54.2,45.3 53.9,43.1 C53.6,41 52.8,39 51.7,37.4 C49.1,33.7 44.7,31.4 39.9,31.4 C35.1,31.4 30.6,33.6 28.1,37.4 C26.9,39.1 26.2,41 25.9,43.1 C25.6,45.3 25.7,47.7 26.3,50.2 C27.6,55.8 31,62 36.5,68.8 C33.1,72.6 30,75.2 27,76.9 C24.8,78.1 22.7,78.8 20.6,79.1 C18.4,79.4 16.2,79.1 14.2,78.3 C10.1,76.6 7.2,72.9 6.6,68.5 C6.3,66.4 6.5,64.3 7.3,62 C7.6,61.2 7.9,60.3 8.4,59.3 C9,57.9 9.7,56.5 10.3,55.1 L10.4,54.9 C16.2,42.4 22.4,29.7 28.8,17.2 L29.1,16.7 C29.8,15.4 30.4,14.1 31.1,12.8 C31.8,11.5 32.5,10.2 33.5,9.1 C35.3,7 37.6,6 40.2,6 C42.8,6 45.1,7.1 46.9,9.1 C47.8,10.2 48.6,11.5 49.3,12.8 C50,14.1 50.7,15.4 51.3,16.6 L51.6,17.1 C58,29.6 64.2,42.3 70,54.8 L70.1,54.9 C70.7,56.3 71.4,57.7 72,59.1 C72.4,60.1 72.8,60.9 73.1,61.8 C73.3,64.3 73.5,66.4 73.2,68.5 M39.7,64.6 C35.2,58.8 32.2,53.5 31.2,49 C30.8,47.1 30.7,45.4 30.9,43.9 C31.1,42.6 31.6,41.4 32.3,40.4 C33.9,38.1 36.6,36.8 39.7,36.8 C42.8,36.8 45.5,38.2 47.1,40.4 C47.8,41.4 48.2,42.6 48.5,43.9 C48.7,45.4 48.6,47.2 48.2,49 C47.1,53.5 44.2,58.8 39.7,64.6 M77.3,60 C76.9,59 76.5,57.9 76.1,57 C75.5,55.6 74.8,54.1 74.1,52.7 L74,52.6 C68.2,40.1 62,27.4 55.6,14.8 L55.3,14.3 C54.6,13 54,11.7 53.3,10.4 C52.5,8.9 51.6,7.3 50.3,5.8 C47.5,2.6 43.7,0.8 39.6,0.8 C35.5,0.8 31.6,2.6 28.9,5.8 C27.6,7.3 26.7,8.9 25.9,10.4 C25.2,11.7 24.5,13 23.8,14.3 L23.5,14.8 C17.1,27.3 10.9,40 5.1,52.6 L5,52.8 C4.4,54.2 3.7,55.6 3.1,57 C2.7,57.9 2.2,59 1.9,60 C0.8,63.1 0.5,66 0.9,69 C1.8,75.2 6,80.6 11.8,82.9 C14,83.8 16.3,84.2 18.6,84.2 C19.3,84.2 20.1,84.2 20.8,84.1 C23.6,83.8 26.4,82.8 29.2,81.3 C32.6,79.4 35.9,76.6 39.6,72.6 C43.2,76.6 46.6,79.4 50,81.3 C52.8,82.9 55.6,83.8 58.4,84.1 C59.1,84.2 59.9,84.2 60.6,84.2 C63,84.2 65.3,83.8 67.4,82.9 C73.2,80.5 77.4,75.2 78.3,69 C78.7,66 78.4,63 77.3,60" id="XMLID_8_"></path>
            </g>
            <path d="M227,44.9 L222.8,44.9 L222.8,40.7 C222.8,40.1 222.3,39.6 221.7,39.6 C221.1,39.6 220.6,40.1 220.6,40.7 L220.6,44.9 L216.4,44.9 C215.8,44.9 215.3,45.4 215.3,46 C215.3,46.6 215.8,47.1 216.4,47.1 L220.6,47.1 L220.6,51.3 C220.6,51.9 221.1,52.4 221.7,52.4 C222.3,52.4 222.8,51.9 222.8,51.3 L222.8,47.1 L227,47.1 C227.6,47.1 228.1,46.6 228.1,46 C228.1,45.4 227.6,44.9 227,44.9 L227,44.9 Z" id="XMLID_12_" sketch:type="MSShapeGroup"></path>
            <g id="XMLID_38_" transform="translate(0.000000, 12.000000)" sketch:type="MSShapeGroup">
                <path d="M42.6,17.7 C40.3,16.6 37.6,15.9 34.9,15.9 C25.1,15.9 17.1,23.9 17.1,33.7 C17.1,43.5 25.1,51.5 34.9,51.5 C37.7,51.5 40.3,50.9 42.6,49.7 C42.9,50.7 43.9,51.5 45,51.5 L52.7,51.5 L52.7,16 L45,16 C43.9,16 42.9,16.7 42.6,17.7 L42.6,17.7 Z M42.5,34.5 C42.2,38.4 38.9,41.5 34.9,41.5 C30.7,41.5 27.3,38.1 27.3,33.9 C27.3,29.7 30.7,26.3 34.9,26.3 C38.9,26.3 42.2,29.4 42.5,33.3 L42.5,34.5 L42.5,34.5 Z" id="XMLID_41_"></path>
                <path d="M79.3,16 C76.5,16 73.9,16.6 71.6,17.8 C71.3,16.8 70.3,16 69.2,16 L61.5,16 L61.5,18.2 L61.5,18.6 L61.5,51.7 L61.5,64.6 L61.5,67.2 L71.7,67.2 L71.7,50.1 C74,51.2 76.6,51.8 79.3,51.8 C89.2,51.8 97.1,43.8 97.1,34 C97.1,24 89.2,16 79.3,16 L79.3,16 Z M79.3,41.4 C75.3,41.4 72,38.3 71.7,34.4 L71.7,33.1 C72,29.2 75.3,26.1 79.3,26.1 C83.5,26.1 86.9,29.5 86.9,33.7 C86.9,38 83.5,41.4 79.3,41.4 L79.3,41.4 Z" id="XMLID_44_"></path>
                <path d="M123.2,16 L114,29.2 L114,0.7 L103.8,0.7 L103.8,3.3 L103.8,49.3 L103.8,51.8 L114,51.8 L114,38.4 L123.4,51.6 L136.1,51.6 L122.7,33.8 L136.1,16 L123.2,16 Z" id="XMLID_45_"></path>
                <path d="M0.3,3.3 L0.3,49.3 L0.3,51.8 L10.5,51.8 L10.5,0.7 L0.3,0.7 L0.3,3.3 Z" id="XMLID_46_"></path>
                <path d="M165.5,16 C164.4,16 163.4,16.7 163.1,17.8 C160.8,16.7 158.1,16 155.3,16 C145.5,16 137.5,24 137.5,33.8 C137.5,43.6 145.5,51.6 155.3,51.6 C158.1,51.6 160.7,51 163.1,49.8 C163.4,50.8 164.4,51.6 165.5,51.6 L173.2,51.6 L173.2,16 L165.5,16 L165.5,16 Z M162.9,34.5 C162.6,38.4 159.3,41.5 155.3,41.5 C151.1,41.5 147.7,38.1 147.7,33.9 C147.7,29.7 151.1,26.3 155.3,26.3 C159.3,26.3 162.6,29.4 162.9,33.3 L162.9,34.5 L162.9,34.5 Z" id="XMLID_49_"></path>
            </g>
        </g>
    </g>
</svg>