<?xml version="1.0" encoding="UTF-8" standalone="no"?>
<svg width="288px" height="74px" viewBox="0 0 288 74" version="1.1" xmlns="http://www.w3.org/2000/svg" xmlns:xlink="http://www.w3.org/1999/xlink" xmlns:sketch="http://www.bohemiancoding.com/sketch/ns">
    <!-- Generator: Sketch 3.3.3 (12072) - http://www.bohemiancoding.com/sketch -->
    <title>lapka-x-airbnb-mobile</title>
    <desc>Created with Sketch.</desc>
    <defs></defs>
    <g id="Page-1" stroke="none" stroke-width="1" fill="none" fill-rule="evenodd" sketch:type="MSPage">
        <g id="lapka-x-airbnb-mobile" sketch:type="MSLayerGroup" fill="#000000">
            <g id="XMLID_1_" transform="translate(220.000000, 0.000000)" sketch:type="MSShapeGroup">
                <path d="M63.2,59.5 C62.7,63.3 60.1,66.5 56.6,68 C54.9,68.7 53,69 51,68.7 C49.2,68.5 47.3,67.9 45.4,66.8 C42.8,65.3 40.1,63.1 37.1,59.7 C41.9,53.8 44.8,48.4 45.9,43.6 C46.4,41.4 46.5,39.3 46.2,37.4 C45.9,35.6 45.3,33.9 44.3,32.4 C42.1,29.2 38.2,27.2 34,27.2 C29.8,27.2 26,29.1 23.7,32.4 C22.7,33.9 22.1,35.5 21.8,37.4 C21.5,39.3 21.6,41.4 22.1,43.6 C23.2,48.4 26.2,53.8 30.9,59.7 C27.9,63 25.3,65.3 22.6,66.8 C20.7,67.9 18.9,68.5 17,68.7 C15.1,68.9 13.2,68.7 11.4,68 C7.9,66.6 5.3,63.3 4.8,59.5 C4.5,57.6 4.7,55.9 5.4,53.9 C5.7,53.2 6,52.5 6.3,51.6 C6.8,50.4 7.4,49.2 7.9,48 L8,47.8 C13,36.9 18.4,25.9 24,15.1 L24.2,14.7 C24.8,13.6 25.4,12.5 26,11.3 C26.6,10.2 27.2,9 28.1,8.1 C29.6,6.3 31.6,5.4 33.9,5.4 C36.2,5.4 38.2,6.3 39.7,8.1 C40.5,9.1 41.1,10.2 41.8,11.3 C42.4,12.4 43,13.5 43.5,14.6 L43.7,15.1 C49.3,25.9 54.7,36.9 59.7,47.8 L59.7,47.9 C60.3,49.1 60.8,50.4 61.4,51.6 C61.8,52.5 62.1,53.2 62.3,53.9 C63.3,55.8 63.5,57.6 63.2,59.5 M34.2,56.1 C30.3,51.1 27.7,46.5 26.9,42.6 C26.5,41 26.4,39.5 26.6,38.1 C26.8,37 27.2,35.9 27.8,35.1 C29.2,33.1 31.6,31.9 34.2,31.9 C36.8,31.9 39.3,33.1 40.6,35.1 C41.2,36 41.6,37 41.8,38.1 C42,39.4 41.9,40.9 41.5,42.6 C40.6,46.5 38.1,51.1 34.2,56.1 M66.8,52.1 C66.5,51.2 66.1,50.3 65.7,49.5 C65.1,48.2 64.6,47 64,45.8 L64,45.7 C59,34.8 53.6,23.8 48,13 L47.8,12.5 C47.2,11.4 46.6,10.2 46,9.1 C45.3,7.8 44.5,6.4 43.4,5.1 C41,2.3 37.7,0.8 34.1,0.8 C30.5,0.8 27.2,2.3 24.8,5.1 C23.7,6.4 22.9,7.8 22.2,9.1 C21.6,10.2 21,11.4 20.4,12.5 L20.2,12.9 C14.6,23.8 9.2,34.8 4.2,45.6 L4.1,45.8 C3.5,47 3,48.2 2.4,49.5 C2,50.3 1.7,51.2 1.3,52.1 C0.4,54.8 0.1,57.3 0.4,59.9 C1.2,65.3 4.8,69.9 9.8,72 C11.7,72.8 13.7,73.1 15.7,73.1 C16.3,73.1 17,73.1 17.6,73 C20,72.7 22.5,71.9 24.9,70.5 C27.8,68.8 30.7,66.4 33.9,63 C37.1,66.5 40,68.9 42.9,70.5 C45.3,71.8 47.7,72.7 50.2,73 C50.8,73.1 51.5,73.1 52.1,73.1 C54.1,73.1 56.1,72.7 58,72 C63,70 66.7,65.3 67.4,59.9 C68,57.3 67.8,54.7 66.8,52.1" id="XMLID_2_"></path>
            </g>
            <path d="M201.5,36.9 L197.7,36.9 L197.7,33.1 C197.7,32.5 197.3,32.1 196.7,32.1 C196.1,32.1 195.7,32.5 195.7,33.1 L195.7,36.9 L191.9,36.9 C191.3,36.9 190.9,37.3 190.9,37.9 C190.9,38.5 191.3,38.9 191.9,38.9 L195.7,38.9 L195.7,42.7 C195.7,43.3 196.1,43.7 196.7,43.7 C197.3,43.7 197.7,43.3 197.7,42.7 L197.7,38.9 L201.5,38.9 C202.1,38.9 202.5,38.5 202.5,37.9 C202.5,37.3 202.1,36.9 201.5,36.9 L201.5,36.9 Z" id="XMLID_15_" sketch:type="MSShapeGroup"></path>
            <g id="XMLID_22_" transform="translate(0.000000, 6.000000)" sketch:type="MSShapeGroup">
                <path d="M40.8,16.3 C38.6,15.2 36.1,14.6 33.4,14.6 C24,14.6 16.3,22.2 16.3,31.7 C16.3,41.1 23.9,48.8 33.4,48.8 C36.1,48.8 38.6,48.2 40.8,47.1 C41.1,48.1 42,48.8 43.1,48.8 L50.4,48.8 L50.4,14.7 L43.1,14.7 C42,14.6 41.1,15.3 40.8,16.3 L40.8,16.3 Z M40.6,32.3 C40.3,36 37.1,39 33.3,39 C29.3,39 26,35.7 26,31.7 C26,27.7 29.3,24.4 33.3,24.4 C37.1,24.4 40.3,27.3 40.6,31.1 L40.6,32.3 L40.6,32.3 Z" id="XMLID_25_"></path>
                <path d="M75.9,14.6 C73.3,14.6 70.7,15.2 68.5,16.3 C68.2,15.3 67.3,14.6 66.2,14.6 L58.9,14.6 L58.9,16.7 L58.9,17.1 L58.9,48.8 L58.9,61 L58.9,63.5 L68.7,63.5 L68.7,47.1 C70.9,48.1 73.4,48.7 76,48.7 C85.4,48.7 93.1,41.1 93.1,31.6 C93,22.2 85.3,14.6 75.9,14.6 L75.9,14.6 Z M75.9,39 C72.1,39 69,36.1 68.6,32.3 L68.6,31 C68.9,27.3 72.1,24.3 75.9,24.3 C79.9,24.3 83.2,27.6 83.2,31.6 C83.2,35.7 79.9,39 75.9,39 L75.9,39 Z" id="XMLID_50_"></path>
                <path d="M117.9,14.6 L109.1,27.2 L109.1,0 L99.3,0 L99.3,2.5 L99.3,46.5 L99.3,48.9 L109.1,48.9 L109.1,36 L118.1,48.7 L130.2,48.7 L117.4,31.7 L130.2,14.6 L117.9,14.6 Z" id="XMLID_51_"></path>
                <path d="M0.3,2.5 L0.3,46.5 L0.3,48.9 L10.1,48.9 L10.1,0 L0.3,0 L0.3,2.5 Z" id="XMLID_52_"></path>
                <path d="M158.4,14.6 C157.3,14.6 156.4,15.3 156.1,16.3 C153.9,15.2 151.3,14.6 148.7,14.6 C139.3,14.6 131.6,22.2 131.6,31.7 C131.6,41.1 139.2,48.8 148.7,48.8 C151.4,48.8 153.9,48.2 156.1,47.1 C156.4,48.1 157.3,48.8 158.4,48.8 L165.7,48.8 L165.7,14.7 L158.4,14.7 L158.4,14.6 Z M155.9,32.3 C155.6,36 152.5,39 148.6,39 C144.6,39 141.3,35.7 141.3,31.7 C141.3,27.7 144.6,24.4 148.6,24.4 C152.4,24.4 155.6,27.3 155.9,31.1 L155.9,32.3 L155.9,32.3 Z" id="XMLID_55_"></path>
            </g>
        </g>
    </g>
</svg>